<svg width="262" height="236" viewBox="0 0 262 236" fill="none" xmlns="http://www.w3.org/2000/svg">
<g clip-path="url(#clip0_6_4)">
<path d="M251.439 93.5498C251.439 134.491 225.131 169.287 188.492 181.97C173.744 187.046 157.966 188.382 142.574 185.857C141.113 185.619 139.662 185.345 138.222 185.035C136.271 184.621 134.343 184.145 132.438 183.606C93.1018 172.539 64.2703 136.41 64.2703 93.5498C64.2703 41.8834 106.169 0 157.854 0C209.54 0 251.439 41.8834 251.439 93.5498Z" fill="#F7F7F7"/>
<path d="M99.2393 122.424C99.0746 122.512 98.9515 122.662 98.8972 122.84C98.8428 123.019 98.8617 123.212 98.9495 123.377L134.135 189.255C134.223 189.42 134.373 189.543 134.552 189.597C134.73 189.651 134.923 189.633 135.088 189.545L184.826 163C184.991 162.912 185.114 162.762 185.168 162.583C185.222 162.404 185.204 162.211 185.116 162.046L149.931 96.1681C149.842 96.0034 149.693 95.8804 149.514 95.8261C149.335 95.7718 149.142 95.7906 148.977 95.8784L99.2393 122.424Z" fill="#3F3D56"/>
<path d="M103.863 124.348L136.061 184.633L180.203 161.074L148.005 100.79L103.863 124.348ZM101.066 125.841L101.072 125.838L101.065 125.841L101.066 125.841Z" fill="white"/>
<path d="M114.992 130.976C114.307 131.342 114.161 132.411 114.666 133.358C115.172 134.305 116.142 134.778 116.827 134.412L149.157 117.157C149.843 116.791 149.989 115.723 149.483 114.776C148.977 113.829 148.008 113.356 147.322 113.722L114.992 130.976Z" fill="#22417D"/>
<path d="M118.976 138.434C118.29 138.8 118.144 139.868 118.65 140.815C119.155 141.762 120.125 142.235 120.811 141.869L153.14 124.615C153.826 124.249 153.972 123.181 153.466 122.234C152.96 121.287 151.991 120.814 151.305 121.18L118.976 138.434Z" fill="#22417D"/>
<path d="M122.959 145.892C122.273 146.258 122.127 147.326 122.633 148.273C123.139 149.22 124.108 149.694 124.794 149.328L157.123 132.073C157.809 131.707 157.955 130.639 157.449 129.692C156.943 128.745 155.974 128.272 155.288 128.638L122.959 145.892Z" fill="#22417D"/>
<path d="M126.942 153.35C126.256 153.716 126.11 154.784 126.616 155.731C127.122 156.678 128.091 157.151 128.777 156.785L161.106 139.531C161.792 139.165 161.938 138.097 161.432 137.15C160.927 136.203 159.957 135.729 159.272 136.095L126.942 153.35Z" fill="#22417D"/>
<path d="M130.925 160.808C130.24 161.174 130.094 162.242 130.599 163.189C131.105 164.136 132.074 164.609 132.76 164.243L165.09 146.989C165.775 146.623 165.921 145.555 165.416 144.608C164.91 143.661 163.941 143.187 163.255 143.553L130.925 160.808Z" fill="#22417D"/>
<path d="M137.203 93.9616L166.498 95.7498L174.702 71.2929L149.007 65.866L137.203 93.9616Z" fill="#242C3E"/>
<path d="M158.33 87.7773C164.801 87.7773 170.046 82.5338 170.046 76.0655C170.046 69.5973 164.801 64.3538 158.33 64.3538C151.86 64.3538 146.614 69.5973 146.614 76.0655C146.614 82.5338 151.86 87.7773 158.33 87.7773Z" fill="#F2C9B7"/>
<path d="M188.416 181.058L188.492 181.97C173.744 187.046 157.966 188.382 142.574 185.857L138.222 185.035L142.363 175.856L145.077 169.839L144.1 149.024L143.996 146.87L143.869 144.122L145.637 144.111L158.207 144.036L170.186 143.96L172.013 143.949C183.467 158.033 192.919 169.48 188.416 181.058Z" fill="#242C3E"/>
<path d="M171.84 143.777L143.869 146.883L142.833 127.552C139.55 119.183 141.717 111.713 148.53 105.009L149.915 99.5289C150.278 98.0904 151.029 96.7791 152.086 95.7377C153.143 94.6962 154.466 93.9644 155.91 93.6218C160.489 90.9968 165.675 89.7456 171.495 89.9251C173.819 90.8323 175.789 92.4626 177.116 94.5753C178.442 96.6879 179.053 99.1708 178.859 101.657C177.655 116.85 175.495 131.071 171.84 143.777Z" fill="#22417D"/>
<path d="M149.467 62.2282C149.467 62.2282 143.409 64.4381 143.254 72.4726C143.245 73.8246 143.426 75.1712 143.79 76.4732C144.183 77.9499 144.498 81.1538 141.856 85.4247C140.13 88.1969 138.57 91.0687 137.183 94.0251L144.004 94.683L145.132 83.3794C145.679 77.8992 147.03 72.5293 149.142 67.4424L149.186 67.3363C149.186 67.3363 152.315 72.7733 158.263 72.6058L156.079 70.5423C156.079 70.5423 163.528 73.3466 167.579 73.9096C168.042 73.974 168.478 74.1632 168.84 74.4569C169.203 74.7505 169.479 75.1376 169.638 75.5763C169.796 76.015 169.833 76.4887 169.742 76.9465C169.652 77.4042 169.438 77.8286 169.124 78.1739C169.1 78.1999 169.076 78.226 169.051 78.2522C166.574 80.8721 161.644 86.9611 164.749 91.5488C167.855 96.1365 165.342 97.4823 165.342 97.4823L169.943 94.8026L172.031 93.4688L172.079 95.1675L183.089 93.5824C183.089 93.5824 186.051 93.074 179.475 86.0339C179.475 86.0339 177.713 83.2778 178.381 80.839C178.934 78.9843 179.038 77.0247 178.684 75.1219C177.032 67.2008 170.985 51.5305 149.467 62.2282Z" fill="#242C3E"/>
<path d="M0.256473 111.339C0.168022 111.363 0.0925725 111.42 0.0466807 111.5C0.000788853 111.579 -0.0117982 111.673 0.0116872 111.761L9.43576 147.119C9.45943 147.208 9.51721 147.283 9.59644 147.329C9.67566 147.375 9.76986 147.388 9.85836 147.364L36.5534 140.254C36.6418 140.231 36.7173 140.173 36.7632 140.094C36.8091 140.014 36.8217 139.92 36.7982 139.832L27.3741 104.474C27.3505 104.385 27.2927 104.31 27.2134 104.264C27.1342 104.218 27.04 104.206 26.9515 104.229L0.256473 111.339Z" fill="#F2F2F2"/>
<path d="M6.81607 117.178C6.448 117.276 6.25896 117.77 6.39442 118.278C6.52988 118.786 6.93946 119.12 7.30752 119.022L24.6593 114.401C25.0274 114.303 25.2164 113.809 25.0809 113.301C24.9455 112.793 24.5359 112.459 24.1678 112.557L6.81607 117.178Z" fill="white"/>
<path d="M7.88297 121.181C7.5149 121.279 7.32585 121.773 7.46132 122.281C7.59678 122.789 8.00635 123.123 8.37442 123.025L25.7262 118.404C26.0943 118.306 26.2833 117.812 26.1478 117.304C26.0124 116.796 25.6028 116.462 25.2347 116.56L7.88297 121.181Z" fill="white"/>
<path d="M8.94986 125.184C8.58179 125.282 8.39275 125.775 8.52821 126.284C8.66367 126.792 9.07325 127.126 9.44131 127.028L26.7931 122.406C27.1612 122.308 27.3502 121.815 27.2147 121.307C27.0793 120.798 26.6697 120.464 26.3016 120.562L8.94986 125.184Z" fill="white"/>
<path d="M10.0168 129.187C9.64869 129.285 9.45964 129.778 9.59511 130.287C9.73057 130.795 10.1401 131.129 10.5082 131.031L27.86 126.409C28.228 126.311 28.4171 125.818 28.2816 125.31C28.1462 124.801 27.7366 124.467 27.3685 124.565L10.0168 129.187Z" fill="white"/>
<path d="M11.0836 133.19C10.7156 133.288 10.5265 133.781 10.662 134.289C10.7975 134.797 11.207 135.131 11.5751 135.033L28.9269 130.412C29.2949 130.314 29.484 129.821 29.3485 129.312C29.2131 128.804 28.8035 128.47 28.4354 128.568L11.0836 133.19Z" fill="white"/>
<path d="M12.1504 137.192C11.7824 137.29 11.5933 137.784 11.7288 138.292C11.8642 138.8 12.2738 139.134 12.6419 139.036L29.9937 134.415C30.3617 134.317 30.5508 133.823 30.4153 133.315C30.2798 132.807 29.8703 132.473 29.5022 132.571L12.1504 137.192Z" fill="white"/>
<path d="M68.4775 235.92C68.4775 235.964 68.6323 236 68.8229 236H105.428C105.618 236 105.773 235.964 105.773 235.92V229.521C105.773 229.477 105.618 229.441 105.428 229.441H68.8229C68.6323 229.441 68.4775 229.477 68.4775 229.521V235.92Z" fill="#F2F2F2"/>
<path d="M75.811 234.8C75.811 234.888 76.2393 234.96 76.7655 234.96C77.2916 234.96 77.7199 234.888 77.7199 234.8V230.641C77.7199 230.553 77.2916 230.481 76.7655 230.481C76.2393 230.481 75.811 230.553 75.811 230.641V234.8Z" fill="white"/>
<path d="M79.955 234.8C79.955 234.888 80.3832 234.96 80.9094 234.96C81.4356 234.96 81.8639 234.888 81.8639 234.8V230.641C81.8639 230.553 81.4356 230.481 80.9094 230.481C80.3832 230.481 79.955 230.553 79.955 230.641V234.8Z" fill="white"/>
<path d="M84.0989 234.8C84.0989 234.888 84.5272 234.96 85.0533 234.96C85.5795 234.96 86.0078 234.888 86.0078 234.8V230.641C86.0078 230.553 85.5795 230.481 85.0533 230.481C84.5272 230.481 84.0989 230.553 84.0989 230.641V234.8Z" fill="white"/>
<path d="M88.2428 234.8C88.2428 234.888 88.6711 234.96 89.1972 234.96C89.7234 234.96 90.1517 234.888 90.1517 234.8V230.641C90.1517 230.553 89.7234 230.481 89.1972 230.481C88.6711 230.481 88.2428 230.553 88.2428 230.641V234.8Z" fill="white"/>
<path d="M92.3867 234.8C92.3867 234.888 92.815 234.96 93.3412 234.96C93.8673 234.96 94.2956 234.888 94.2956 234.8V230.641C94.2956 230.553 93.8673 230.481 93.3412 230.481C92.815 230.481 92.3867 230.553 92.3867 230.641V234.8Z" fill="white"/>
<path d="M96.5308 234.8C96.5308 234.888 96.9591 234.96 97.4852 234.96C98.0114 234.96 98.4397 234.888 98.4397 234.8V230.641C98.4397 230.553 98.0114 230.481 97.4852 230.481C96.9591 230.481 96.5308 230.553 96.5308 230.641V234.8Z" fill="white"/>
<path d="M1.23567 85.8232C1.15494 85.8664 1.09465 85.9399 1.06803 86.0274C1.04141 86.115 1.05064 86.2096 1.09368 86.2903L18.3337 118.569C18.3769 118.65 18.4503 118.71 18.538 118.737C18.6256 118.763 18.7201 118.754 18.801 118.711L43.1714 105.705C43.2521 105.662 43.3124 105.588 43.339 105.5C43.3656 105.413 43.3564 105.318 43.3134 105.238L26.0734 72.9586C26.0302 72.8779 25.9567 72.8177 25.8691 72.7911C25.7815 72.7644 25.6869 72.7737 25.6061 72.8167L1.23567 85.8232Z" fill="#E6E6E6"/>
<path d="M3.50099 86.7665L19.2774 116.305L40.9061 104.762L25.1298 75.2231L3.50099 86.7665ZM2.13046 87.4979L2.1335 87.4964L2.13013 87.498L2.13046 87.4979Z" fill="white"/>
<path d="M8.95431 90.0139C8.61831 90.1933 8.54676 90.7168 8.79457 91.1808C9.04238 91.6447 9.51734 91.8766 9.85335 91.6972L25.6941 83.243C26.0301 83.0637 26.1017 82.5402 25.8539 82.0762C25.6061 81.6122 25.1311 81.3804 24.7951 81.5597L8.95431 90.0139Z" fill="#22417D"/>
<path d="M10.9061 93.6682C10.5701 93.8476 10.4985 94.3711 10.7464 94.8351C10.9942 95.299 11.4691 95.5309 11.8051 95.3515L27.6459 86.8973C27.9819 86.718 28.0535 86.1945 27.8057 85.7305C27.5578 85.2665 27.0829 85.0347 26.7469 85.214L10.9061 93.6682Z" fill="#22417D"/>
<path d="M12.8578 97.3223C12.5217 97.5016 12.4502 98.0251 12.698 98.4891C12.9458 98.9531 13.4208 99.1849 13.7568 99.0056L29.5976 90.5513C29.9336 90.372 30.0052 89.8485 29.7573 89.3845C29.5095 88.9205 29.0346 88.6887 28.6986 88.868L12.8578 97.3223Z" fill="#22417D"/>
<path d="M14.8094 100.977C14.4734 101.156 14.4019 101.679 14.6497 102.143C14.8975 102.607 15.3724 102.839 15.7084 102.66L31.5492 94.2056C31.8853 94.0263 31.9568 93.5028 31.709 93.0388C31.4612 92.5748 30.9862 92.343 30.6502 92.5223L14.8094 100.977Z" fill="#22417D"/>
<path d="M16.7612 104.631C16.4252 104.81 16.3536 105.334 16.6015 105.798C16.8493 106.262 17.3242 106.494 17.6602 106.314L33.501 97.8599C33.837 97.6806 33.9086 97.1571 33.6608 96.6931C33.413 96.2291 32.938 95.9973 32.602 96.1766L16.7612 104.631Z" fill="#22417D"/>
<path d="M18.7129 108.285C18.3768 108.464 18.3053 108.988 18.5531 109.452C18.8009 109.916 19.2759 110.148 19.6119 109.968L35.4527 101.514C35.7887 101.335 35.8602 100.811 35.6124 100.347C35.3646 99.8832 34.8897 99.6514 34.5536 99.8307L18.7129 108.285Z" fill="#22417D"/>
<path d="M238.046 168.312C237.968 168.265 237.874 168.252 237.785 168.275C237.696 168.298 237.62 168.355 237.573 168.433L218.951 199.935C218.904 200.014 218.891 200.108 218.914 200.197C218.937 200.286 218.994 200.362 219.072 200.408L242.856 214.458C242.935 214.505 243.029 214.518 243.118 214.495C243.207 214.472 243.283 214.415 243.329 214.336L261.952 182.834C261.998 182.756 262.012 182.661 261.989 182.573C261.966 182.484 261.909 182.408 261.83 182.362L238.046 168.312Z" fill="#E6E6E6"/>
<path d="M238.418 170.737L221.377 199.564L242.485 212.033L259.526 183.206L238.418 170.737ZM237.081 169.946L237.084 169.948L237.08 169.946L237.081 169.946Z" fill="white"/>
<path d="M238.478 177.082C238.15 176.888 237.665 177.099 237.398 177.552C237.13 178.005 237.179 178.531 237.507 178.725L252.966 187.857C253.294 188.051 253.779 187.84 254.046 187.387C254.314 186.934 254.265 186.408 253.937 186.214L238.478 177.082Z" fill="#22417D"/>
<path d="M236.37 180.648C236.042 180.454 235.557 180.665 235.289 181.118C235.022 181.571 235.071 182.097 235.398 182.291L250.858 191.423C251.186 191.617 251.67 191.406 251.938 190.953C252.206 190.5 252.157 189.974 251.829 189.78L236.37 180.648Z" fill="#22417D"/>
<path d="M234.261 184.214C233.933 184.021 233.449 184.232 233.181 184.684C232.913 185.137 232.962 185.663 233.29 185.857L248.75 194.989C249.078 195.183 249.562 194.972 249.83 194.519C250.098 194.066 250.049 193.54 249.721 193.347L234.261 184.214Z" fill="#22417D"/>
<path d="M232.153 187.78C231.825 187.587 231.341 187.798 231.073 188.251C230.805 188.703 230.854 189.23 231.182 189.423L246.641 198.556C246.969 198.749 247.454 198.538 247.722 198.085C247.989 197.633 247.941 197.106 247.613 196.913L232.153 187.78Z" fill="#22417D"/>
<path d="M230.045 191.347C229.717 191.153 229.232 191.364 228.965 191.817C228.697 192.27 228.746 192.796 229.074 192.99L244.533 202.122C244.861 202.316 245.346 202.105 245.613 201.652C245.881 201.199 245.832 200.673 245.504 200.479L230.045 191.347Z" fill="#22417D"/>
<path d="M227.937 194.913C227.609 194.719 227.124 194.93 226.856 195.383C226.589 195.836 226.638 196.362 226.965 196.556L242.425 205.688C242.753 205.882 243.237 205.671 243.505 205.218C243.773 204.765 243.724 204.239 243.396 204.045L227.937 194.913Z" fill="#22417D"/>
<path d="M152.156 110.982L151.797 113.206L148.012 136.527L145.637 144.111L144.801 146.78L144.1 149.024L135.581 176.226L133.243 181.715C131.961 182.189 130.858 183.052 130.091 184.184C129.323 185.315 128.928 186.657 128.961 188.024C128.994 189.39 129.454 190.712 130.275 191.805C131.097 192.898 132.24 193.706 133.544 194.118C134.848 194.529 136.248 194.523 137.548 194.1C138.849 193.677 139.984 192.859 140.796 191.759C141.608 190.659 142.056 189.333 142.077 187.967C142.098 186.6 141.692 185.261 140.914 184.136L157.589 145.361L158.207 144.036L160.099 139.979L163.673 113.023L163.898 111.328L152.156 110.982Z" fill="#F2C9B7"/>
<path d="M165.97 113.744C160.543 111.795 155.336 111.587 150.43 113.744L152.031 99.8686C151.973 98.1359 152.596 96.4493 153.769 95.1716C154.941 93.8938 156.568 93.1269 158.3 93.0358C160.053 92.9435 161.771 93.5513 163.076 94.7254C164.381 95.8996 165.166 97.5439 165.259 99.2966L165.26 99.3193L165.97 113.744Z" fill="#22417D"/>
</g>
<defs>
<clipPath id="clip0_6_4">
<rect width="262" height="236" fill="white"/>
</clipPath>
</defs>
</svg>
